<svg xmlns="http://www.w3.org/2000/svg" version="1.1" xmlns:xlink="http://www.w3.org/1999/xlink" width="1000" height="1000"><style>
    #light-icon {
      display: inline;
    }
    #dark-icon {
      display: none;
    }

    @media (prefers-color-scheme: dark) {
      #light-icon {
        display: none;
      }
      #dark-icon {
        display: inline;
      }
    }
  </style><g id="light-icon"><svg xmlns="http://www.w3.org/2000/svg" version="1.1" xmlns:xlink="http://www.w3.org/1999/xlink" width="1000" height="1000"><g><g transform="matrix(15.625,0,0,15.625,0,0)"><svg xmlns="http://www.w3.org/2000/svg" version="1.1" xmlns:xlink="http://www.w3.org/1999/xlink" width="64" height="64"><svg xmlns="http://www.w3.org/2000/svg" viewBox="0 0 64 64">
  <defs>
    <linearGradient id="alchemy" x1="0%" y1="0%" x2="100%" y2="100%">
      <stop offset="0%" stop-color="#fde68a"></stop>
      <stop offset="100%" stop-color="#f59e0b"></stop>
    </linearGradient>
  </defs>
  <circle cx="32" cy="32" r="24" stroke="url(#alchemy)" stroke-width="4" fill="none"></circle>
  <polygon points="32,14 46,44 18,44" fill="url(#alchemy)"></polygon>
  <circle cx="32" cy="32" r="3" fill="#fff"></circle>
</svg></svg></g></g></svg></g><g id="dark-icon"><svg xmlns="http://www.w3.org/2000/svg" version="1.1" xmlns:xlink="http://www.w3.org/1999/xlink" width="1000" height="1000"><g clip-path="url(#SvgjsClipPath1249)"><rect width="1000" height="1000" fill="#000000"></rect><g transform="matrix(15.625,0,0,15.625,0,0)"><svg xmlns="http://www.w3.org/2000/svg" version="1.1" xmlns:xlink="http://www.w3.org/1999/xlink" width="64" height="64"><svg xmlns="http://www.w3.org/2000/svg" viewBox="0 0 64 64">
  <defs>
    <linearGradient id="alchemy" x1="0%" y1="0%" x2="100%" y2="100%">
      <stop offset="0%" stop-color="#fde68a"></stop>
      <stop offset="100%" stop-color="#f59e0b"></stop>
    </linearGradient>
  <clipPath id="SvgjsClipPath1249"><rect width="1000" height="1000" x="0" y="0" rx="0" ry="0"></rect></clipPath></defs>
  <circle cx="32" cy="32" r="24" stroke="url(#alchemy)" stroke-width="4" fill="none"></circle>
  <polygon points="32,14 46,44 18,44" fill="url(#alchemy)"></polygon>
  <circle cx="32" cy="32" r="3" fill="#fff"></circle>
</svg></svg></g></g></svg></g></svg>